<svg width="55" height="55" viewBox="0 0 55 55" fill="none" xmlns="http://www.w3.org/2000/svg">
<path d="M16.7488 50.4951H9.99878C8.80531 50.4951 7.66071 50.021 6.8168 49.1771C5.97288 48.3332 5.49878 47.1886 5.49878 45.9951V30.2451C5.49878 29.0516 5.97288 27.9071 6.8168 27.0631C7.66071 26.2192 8.80531 25.7451 9.99878 25.7451H16.7488M32.4988 21.2451V12.2451C32.4988 10.4549 31.7876 8.73802 30.5218 7.47215C29.2559 6.20628 27.539 5.49512 25.7488 5.49512L16.7488 25.7451V50.4951H42.1288C43.214 50.5074 44.2671 50.127 45.0941 49.4241C45.921 48.7212 46.4661 47.7432 46.6288 46.6701L49.7338 26.4201C49.8317 25.7752 49.7882 25.1166 49.6063 24.4902C49.4244 23.8637 49.1085 23.2843 48.6805 22.792C48.2524 22.2998 47.7225 21.9065 47.1273 21.6394C46.5322 21.3723 45.8861 21.2377 45.2338 21.2451H32.4988Z" stroke="#9F1A1A" stroke-width="2" stroke-linecap="round" stroke-linejoin="round"/>
</svg>
